<?xml version="1.0" encoding="utf-8"?>
<!-- Generator: Adobe Illustrator 18.1.1, SVG Export Plug-In . SVG Version: 6.00 Build 0)  -->
<svg version="1.1" baseProfile="basic" id="Layer_1"
	 xmlns="http://www.w3.org/2000/svg" xmlns:xlink="http://www.w3.org/1999/xlink" x="0px" y="0px" viewBox="0 0 110 140"
	 xml:space="preserve">
<circle fill="none" stroke="#FFFFFF" stroke-width="2" stroke-linecap="round" stroke-linejoin="round" cx="55.1" cy="81.5" r="16.7"/>
<path fill="none" stroke="#FFFFFF" stroke-width="2" stroke-linecap="round" stroke-miterlimit="10" d="M74.2,47.8
	c10.9,0.8,21.2,2.3,30.3,4.6"/>
<path fill="none" stroke="#FFFFFF" stroke-width="2" stroke-linecap="round" stroke-miterlimit="10" d="M35.7,47.9
	c-11,0.9-21.4,2.5-30.4,4.9"/>
<path fill="none" stroke="#FFFFFF" stroke-width="2" stroke-linecap="round" stroke-miterlimit="10" d="M74.4,114.6
	c-6.2,0.5-12.7,0.8-19.3,0.8c-6.6,0-13.1-0.3-19.3-0.8"/>
<path fill="none" stroke="#FFFFFF" stroke-width="2" stroke-linecap="round" stroke-miterlimit="10" d="M74.2,47.8
	c-6.2-0.5-12.6-0.7-19.1-0.7c-6.6,0-13.1,0.3-19.4,0.8"/>
<path fill="none" stroke="#FFFFFF" stroke-width="2" stroke-linecap="round" stroke-miterlimit="10" d="M93.6,81.3
	C91,86.9,88,92.7,84.7,98.4c-3.3,5.7-6.8,11.2-10.3,16.3"/>
<path fill="none" stroke="#FFFFFF" stroke-width="2" stroke-linecap="round" stroke-miterlimit="10" d="M54.8,24
	c-6.5,6.7-12.9,14.8-19,23.8"/>
<path fill="none" stroke="#FFFFFF" stroke-width="2" stroke-linecap="round" stroke-miterlimit="10" d="M104.5,52.4
	c1-3.5,1.8-7,2.4-10.3c3.7-19.4,0.7-34-6.9-38.4C92.1-0.8,77,4.1,61.3,17.8c-2.2,1.9-4.4,4-6.5,6.2"/>
<path fill="none" stroke="#FFFFFF" stroke-width="2" stroke-linecap="round" stroke-miterlimit="10" d="M104.5,52.4
	c-2.5,9.1-6.2,18.9-10.9,28.9"/>
<path fill="none" stroke="#FFFFFF" stroke-width="2" stroke-linecap="round" stroke-miterlimit="10" d="M74.4,114.6
	c-6.3,9-12.8,17-19.4,23.6"/>
<path fill="none" stroke="#FFFFFF" stroke-width="2" stroke-linecap="round" stroke-miterlimit="10" d="M16.5,81.4
	c2.7-5.7,5.7-11.5,9-17.2c3.3-5.7,6.7-11.2,10.2-16.3"/>
<path fill="none" stroke="#FFFFFF" stroke-width="2" stroke-linecap="round" stroke-miterlimit="10" d="M35.8,114.6
	c6.2,9,12.7,17,19.2,23.7"/>
<path fill="none" stroke="#FFFFFF" stroke-width="2" stroke-linecap="round" stroke-miterlimit="10" d="M16.5,81.4
	c-4.8-9.9-8.6-19.6-11.2-28.6"/>
<path fill="none" stroke="#FFFFFF" stroke-width="2" stroke-linecap="round" stroke-miterlimit="10" d="M74.2,47.8
	C68,38.8,61.3,30.7,54.8,24"/>
<path fill="none" stroke="#FFFFFF" stroke-width="2" stroke-linecap="round" stroke-miterlimit="10" d="M35.8,114.6
	c-3.5-5.1-7-10.6-10.3-16.2c-3.3-5.7-6.3-11.4-9.1-17"/>
<path fill="none" stroke="#FFFFFF" stroke-width="2" stroke-linecap="round" stroke-miterlimit="10" d="M74.2,47.8
	c3.6,5.2,7.1,10.6,10.4,16.4c3.3,5.7,6.3,11.4,9,17.1"/>
<path fill="none" stroke="#FFFFFF" stroke-width="2" stroke-linecap="round" stroke-miterlimit="10" d="M54.8,24
	c-2.6-2.6-5.1-5.1-7.7-7.2C32.1,3.9,18-0.8,10.3,3.6C2.4,8.2-0.9,23.8,3.2,44.2c0.5,2.8,1.3,5.6,2.1,8.6"/>
</svg>
